# xmcd
#
# Track frame offsets:
#	150
#	16509
#	50710
#	71862
#	94763
#	125014
#	148519
#	170411
#	193720
#	206919
#	233299
#	260581
#	288964
#
# Disc length: 4066 seconds
#
# Revision: 0
# Processed by: cddbd v1.4PL0 Copyright (c) Steve Scherf et al.
# Submitted via: audiograbber 1.81.03
#
DISCID=bd0fe00d
DTITLE=Helena Paul - About Me - Live  In Concert
DYEAR=1998
DGENRE=Blues
TTITLE0=Here, There And Everywhere
TTITLE1=Sorry Seems To Be Hardest Word
TTITLE2=The More I See You
TTITLE3=Blame It On My Youth
TTITLE4=The End Of A Love Affair
TTITLE5=Only Heaven Can Wait
TTITLE6=Save Your Love For Me
TTITLE7=Nature Boy
TTITLE8=About Me
TTITLE9=I´m Not In Love
TTITLE10=Darling
TTITLE11=Caravan
TTITLE12=Out Takes!
EXTD=Koch International
EXTT0=
EXTT1=
EXTT2=
EXTT3=
EXTT4=
EXTT5=
EXTT6=
EXTT7=
EXTT8=
EXTT9=
EXTT10=
EXTT11=
EXTT12=
PLAYORDER=
